PathFileType	4	(X/Y/Z)	Patient4_TMGait_0pt3_03_right_21.trc.trc
DataRate	CameraRate	NumFrames	NumMarkers	Units	OrigDataRate	OrigDataStartFrame	OrigNumFrames
53.639846743295	53.639846743295	7	33	mm	53.639846743295	1	       141
Frame#	Time	Sacral			L.Shoulder			Chest			R.Shoulder			Neck			R.ASIS			L.ASIS			R.Thigh.Superior			R.Thigh.Lateral			R.Thigh.Inferior			R.Patella			L.Thigh.Superior			L.Thigh.Lateral			L.Thigh.Inferior			L.Patella			L.Shank.Superior			L.Shank.Lateral			L.Shank.Inferior			R.Shank.Superior			R.Shank.Lateral			R.Shank.Inferior			R.Heel			R.Midfoot.Superior			R.Midfoot.Lateral			R.Toe			L.Heel			L.Midfoot.Lateral			L.Midfoot.Superior			L.Toe			L.Elbow			L.Wrist			R.Elbow			R.Wrist			
		X1	Y1	Z1	X2	Y2	Z2	X3	Y3	Z3	X4	Y4	Z4	X5	Y5	Z5	X6	Y6	Z6	X7	Y7	Z7	X8	Y8	Z8	X9	Y9	Z9	X10	Y10	Z10	X11	Y11	Z11	X12	Y12	Z12	X13	Y13	Z13	X14	Y14	Z14	X15	Y15	Z15	X16	Y16	Z16	X17	Y17	Z17	X18	Y18	Z18	X19	Y19	Z19	X20	Y20	Z20	X21	Y21	Z21	X22	Y22	Z22	X23	Y23	Z23	X24	Y24	Z24	X25	Y25	Z25	X26	Y26	Z26	X27	Y27	Z27	X28	Y28	Z28	X29	Y29	Z29	X30	Y30	Z30	X31	Y31	Z31	X32	Y32	Z32	X33	Y33	Z33	

1	39.230000000000	739.536857848822	1011.220906985668	436.995255269096	936.480137810123	1423.942295277272	241.717750509445	1033.892751838850	1359.544560679575	407.494841967083	950.358958371933	1439.965245228051	577.767707463015	907.672032336528	1490.872585081460	397.934058644920	962.232828253472	939.516042931708	561.398849481949	960.991650943185	956.182792474824	287.158226689257	994.409111813461	732.037957819089	547.353341885535	910.338108726129	630.671512553924	618.385632553353	986.413769842100	564.752279114651	545.671082062481	973.845648544369	459.719878147965	571.339142015002	1012.275981778535	749.032235004763	331.292055615873	936.816645939634	625.845398877011	269.131585293023	1022.089964308325	555.184932135570	340.559849857489	1025.442708934017	481.959875769060	349.971148808605	990.219271070546	409.065994207157	341.937135369793	895.244704532461	302.632277619489	284.699222545037	926.696310026246	188.247305394958	359.368323834004	896.654891787101	395.401891911638	582.911330555323	779.062237695630	358.602759287236	650.340940731675	763.174964690986	246.631841925973	605.122897856229	558.932348244922	183.282712285367	587.036833434985	728.366533887459	125.320068145749	626.001804649189	619.676839465980	125.186602343092	660.045542037342	794.524185381561	31.199376265858	650.302571561678	782.258118956612	40.340929335815	391.544503102563	860.600000753706	36.627672285063	315.563878805729	943.715731169137	95.781988258003	347.962618604592	1072.393195329432	40.387731091472	324.552171797445	971.625264684667	1076.199584528592	115.864838785782	1106.908578699926	851.622392849674	119.438208236434	951.138135049805	1086.998920922540	698.874255747170	1090.638270978117	866.190869704965	717.412003463948	
2	39.248642857143	737.778854869964	1009.509789303432	433.425272060131	938.738820827433	1422.314621134407	240.577753410446	1033.468536876183	1357.809155676857	407.707091427980	947.605559379086	1438.136540533328	576.883919587275	907.848176152954	1489.483652489299	396.399321255797	959.623189811097	938.476862659166	560.501480133093	960.199658049656	953.978757062113	286.200771708530	998.035536841741	734.312576256368	545.387715093505	917.416672390335	630.812800812955	616.522647639479	995.898252930539	566.944717069936	544.217270786072	985.393732289300	460.592863330013	570.180706188096	1012.060796482501	747.464090239662	329.796497952097	936.669772945997	624.219099305847	268.111655926652	1021.664083691146	553.734174096623	340.111592459616	1024.937571693283	480.383563195685	349.921744945459	988.782633742443	407.319083688592	341.886186395112	892.876863472499	301.874835661509	284.384521517879	922.439710365775	187.328362666329	359.330010990700	906.669300532159	396.438349426974	581.340296811542	787.481727897247	362.874172447972	647.797048865552	769.210613340131	251.396762825327	603.137561921409	564.279831247482	194.427733200335	583.398427668667	731.412595783590	131.127275245283	624.135785613642	622.443642977211	134.635120189071	657.170531000648	793.576751999191	31.128888101578	649.671988220144	776.541798432131	40.378519684876	391.405919231578	854.883750215482	36.567762696742	315.439991856731	938.010515745851	95.652067476263	347.950615869462	1066.690592342013	40.233897369982	324.501651216485	980.343227657859	1076.116998751455	113.683459468773	1125.349991844288	858.614555065749	118.596578736172	934.343603939978	1086.126803341579	697.426534517858	1054.682883526244	857.503275615001	718.308452454342	
3	39.267285714286	736.008169661796	1008.013010966347	429.852730862420	941.073176569543	1420.870107472009	239.537512795444	1033.031750740734	1356.256185581072	408.050390977904	944.745305418355	1436.490528192974	576.062759547223	908.041928212072	1488.271513111233	394.957637013874	956.911362706501	937.615433202072	559.666503796604	959.514380035417	952.000842851311	285.314533419033	1001.522081105350	736.855194371314	543.460071771040	924.436227881880	631.242106994540	614.705804659803	1005.290598807673	569.474263133915	542.776472764020	996.937398729985	461.844077680587	569.039908100807	1011.702511661348	745.953866610974	328.335721742005	936.239183773060	622.721564816171	267.106618554866	1020.888685996004	552.329903517210	339.652303299127	1024.034555666336	478.887256723449	349.860787302729	986.986868756899	405.677879308637	341.813985356578	890.211100095600	301.167822665739	284.052215635034	917.979798463622	186.471868170178	359.270470192692	916.813852508240	397.707425983422	579.792614029115	796.050934296146	367.054224905355	645.254798895125	775.676346429283	255.961549610845	601.118573053324	569.997937149621	204.577680245461	579.766080742630	735.250846904229	136.704368466896	622.254964882720	625.917937982836	143.357399021153	654.300515320689	793.954343371974	31.277830781982	649.010477037184	770.690866261556	40.419311435073	391.259829534427	849.038234082433	36.509249488783	315.310484624616	932.175689731024	95.528096237995	347.921057611324	1060.857235231816	40.085718129020	324.446279050705	989.055690794094	1076.198118743597	111.699153828021	1143.866704847579	866.016848567299	117.914239102428	917.170963145320	1085.675456144190	695.979011025890	1018.303822004977	849.607894600409	719.080250549210	
4	39.285928571429	734.275810142281	1006.893410730550	426.392350206906	943.464000053149	1419.756037664790	238.690735196641	1032.593606950756	1355.032856268150	408.590811305481	941.818557066575	1435.186312566082	575.365254018257	908.257779357103	1487.371876904467	393.702639836245	954.117274964461	937.062288407532	558.962259847554	959.004498650887	950.424685790454	284.576724362383	1004.664496044117	739.714861413464	541.671277876578	931.099413234385	632.089032453913	613.041444322293	1014.183901853021	572.409571613868	541.428656631516	1008.048301123685	463.630214245408	567.988540321114	1011.104801879000	744.571300368384	326.993708668960	935.361462404121	621.473035273280	266.157867369773	1019.561230669683	551.041620248284	339.197239426247	1022.500001663395	477.562004258259	349.786442828203	984.661144708945	404.256461463371	341.709829913579	887.138713517180	300.563126478192	283.701966210751	913.318316830610	185.740930947535	359.180641238692	926.812976353568	399.284944210229	578.364317938353	804.606276094886	370.911953585710	642.844448208350	782.677706719907	260.042563910815	599.170797196186	576.287287581623	212.778609182952	576.329917321419	740.307523525182	141.709415043497	620.451088964533	630.546380252679	150.625515109890	651.598286011513	796.496896672471	31.764995942689	648.375784421980	764.795435527674	40.464264516808	391.106918833577	843.156175760679	36.454398714225	315.177054478693	926.304166234770	95.417942569813	347.866014802746	1054.984854114838	39.951045111462	324.385966342237	997.497787550574	1076.534636818327	110.076601860569	1161.941129231272	873.848381569960	117.510369294683	899.942862566173	1085.904359023961	694.567606625022	982.410854859998	843.157442350771	719.636044289897	
5	39.304571428571	732.622454091660	1006.297199235517	423.132970940407	945.907229815253	1419.102376524933	238.118899347521	1032.168364567609	1354.265572759621	409.387067872925	938.864926164934	1434.365864410882	574.841620695375	908.500395768950	1486.900702739159	392.716531574719	951.255237770624	936.937666387588	558.452485360262	958.707438466409	949.383574379183	284.061372190458	1007.282653232253	742.923748028679	540.116705915132	937.125971998982	633.454575457976	611.632731172412	1022.202694818670	575.787746080904	540.256880241633	1018.335661029884	466.077364896775	567.105523311250	1010.168564190932	743.373326606691	325.856311808657	933.885643969858	620.578713616339	265.301206347751	1017.485991042757	549.929597428325	338.766731686416	1020.107359362779	476.486581276229	349.700774622013	981.637173235036	403.155118954398	341.564803678715	883.545929389522	300.107308799868	283.332898255412	908.435502476244	185.190843172258	359.053226185020	936.426298760180	401.225828280733	577.158582673540	813.033280152848	374.208520275376	640.707729862592	790.360292412698	263.368838164737	597.420605126873	583.442389078001	218.168412411039	573.281342141127	747.023641890678	145.816841698105	618.844487144881	636.810372456880	155.783291026106	649.238536427182	801.992024298171	32.652393659710	647.876483637753	758.913466890985	40.514803135284	390.947900393887	837.297580798596	36.405386443123	315.041430254403	920.456482857329	95.328838569308	347.778897401135	1049.132810742869	39.835799202660	324.321044083149	1005.459089831658	1077.209695665535	108.949242590812	1179.164644308973	882.147279664491	117.489137698478	882.913053629922	1087.040333661687	693.208092889831	947.741143061483	838.660153599206	719.903305485820	
6	39.323214285714	731.077081598802	1006.333873851089	420.135892333935	948.409012683343	1419.003748271822	237.884117448165	1031.772354069694	1354.042841983780	410.482810363960	935.926082349891	1434.136314704928	574.527713388188	908.771953489787	1486.938163412728	392.061777515762	948.337133241799	937.333675744165	558.191165897495	958.628610104040	948.954387672519	283.832275759429	1009.231726032389	746.478778481688	538.882001644953	942.263780854064	635.389729226779	610.573070429098	1029.020889630651	579.594237226054	539.344191739085	1027.459977304183	469.255967276718	566.471431018192	1008.803355481762	742.396888922525	325.005720319624	931.693280570341	620.116296345314	264.564514392589	1014.499986639268	549.038739110884	338.385289749323	1016.666467242177	475.719084082053	349.609833827615	977.774158967381	402.449649920368	341.373250636602	879.333591692228	299.836046671530	282.944517426879	903.300868842778	184.862923927626	358.884240428134	945.450813830016	403.549926708064	576.278569020362	821.265540836341	376.714013372113	638.990975645070	798.882810404245	265.708569583714	596.009774673738	591.824757312463	220.069396424584	570.806168213162	755.799382897148	148.750127423952	617.575494661319	645.176472136280	158.317172977955	647.398873533192	811.074764528341	33.941540623804	647.659383352227	753.074721447832	40.572122438113	390.783906505683	831.493245095855	36.363987547797	314.905503429287	914.664227708683	95.266593359413	347.655796679046	1043.331739280116	39.743733779607	324.252473099354	1012.792771501251	1078.284102084854	108.405024563944	1195.250087610092	890.948711272214	117.928973825392	866.276930061834	1089.245510680371	691.898622098465	914.853553989462	836.424557551034	719.836168595880	
7	39.341857142857	729.657512283195	1007.058220426893	417.439011740428	950.978413177750	1419.503972103399	238.025544847083	1031.421620069935	1354.401880719229	411.902258268377	933.046419707591	1434.555173892589	574.444763724512	909.070711806301	1487.516573207012	391.775373751211	945.374173774566	938.297364394635	558.218892930966	958.746556098167	949.151354624428	283.938053194026	1010.407752321568	750.327653396077	538.041008264591	946.297451647776	637.880635528354	609.939719598903	1034.373930190967	583.750987645820	538.769577959214	1035.141602917660	473.164664594123	566.160352808700	1006.937860415409	741.653202827580	324.514053237087	928.713347345376	620.126148449292	263.966199369540	1010.494067648086	548.392838114497	338.078910532843	1012.047647646696	475.290468877443	349.522393531774	972.979732434565	402.183027911890	341.133541352249	874.434250344532	299.769156375787	282.537435472511	897.884653958896	184.779729084055	358.674054741217	953.719757152506	406.234327579091	575.817526781934	829.279257583904	378.228333099366	637.834845396129	808.388730159464	266.895642880556	595.083053991822	601.823176834254	218.058248445698	569.078957658968	766.945718429098	150.315134984821	616.785097288008	656.051587337906	157.910628644876	646.247109978095	824.155542804314	35.595253454002	647.877224349444	747.287551282234	40.636279910606	390.616874451756	825.751174885253	36.331153546918	314.771381923146	908.936259125927	95.234802858968	347.496553830144	1037.590037276032	39.676677460356	324.182002787776	1019.417507183594	1079.784508913752	108.479800262081	1210.029841741126	900.265262381582	118.876534455270	850.187714386857	1092.594062648464	690.627366084569	884.142670590195	836.538224698858	719.418192443109	
